<svg version="1.1" xmlns="http://www.w3.org/2000/svg" xmlns:xlink="http://www.w3.org/1999/xlink" x="0px" y="0px" viewBox="0 0 50 50" style="enable-background:new 0 0 50 50;" xml:space="preserve">
<g id="Layer_1">
<path d="M45.04,11.543c0.553-0.795,0.987-1.676,1.282-2.616l0.791-2.523L44.85,7.772c-1.403,0.849-2.914,1.468-4.497,1.843
		c-2.155-2.07-5.146-2.987-8.128-2.47c-3.999,0.7-7.152,4.047-7.668,8.139c-0.092,0.728-0.107,1.449-0.046,2.158
		c-5.989-0.642-11.538-3.693-15.375-8.495l-0.919-1.15l-0.73,1.278c-0.832,1.455-1.271,3.119-1.271,4.811
		c0,1.903,0.55,3.727,1.545,5.268c-0.041-0.021-0.08-0.044-0.12-0.066l-1.472-0.834l-0.021,1.692
		c-0.037,3.019,1.314,5.778,3.497,7.577l-1.005-0.194l0.502,1.601c0.955,3.04,3.305,5.335,6.2,6.24
		c-2.91,1.686-6.328,2.39-9.723,1.981l-4.243-0.51l3.576,2.34C8.972,41.61,13.62,43,18.394,43c15.607,0,24.933-12.926,24.933-25.422
		c0-0.21-0.002-0.419-0.007-0.627c1.564-1.225,2.914-2.695,4.017-4.379l1.886-2.88l-3.135,1.421
		C45.743,11.27,45.394,11.413,45.04,11.543z M41.71,15.662l-0.43,0.316l0.023,0.533c0.016,0.354,0.023,0.709,0.023,1.066
		C41.327,32.239,29.667,41,18.394,41c-3.081,0-6.105-0.631-8.913-1.844c3.321-0.366,6.434-1.656,9.096-3.786l2.162-1.729
		l-2.768-0.052c-2.644-0.049-5.018-1.527-6.295-3.807c0,0,0.001,0,0.002,0c0.843,0,1.679-0.113,2.484-0.337l3.992-1.111
		l-4.059-0.832c-2.972-0.609-5.228-2.998-5.804-5.947c0.85,0.284,1.739,0.446,2.634,0.475l3.438,0.112l-2.842-1.938
		c-2.07-1.411-3.306-3.773-3.306-6.318c0-0.843,0.137-1.677,0.402-2.466c4.408,4.849,10.527,7.785,17.023,8.118l1.32,0.067
		l-0.294-1.289c-0.204-0.894-0.247-1.83-0.126-2.782c0.407-3.229,2.886-5.868,6.029-6.418c2.499-0.439,5.009,0.411,6.72,2.271
		l0.381,0.414l0.552-0.11c0.963-0.193,1.903-0.466,2.815-0.814c-0.53,0.646-1.168,1.205-1.891,1.646l-3.929,2.402l4.571-0.556
		c0.601-0.073,1.196-0.177,1.782-0.311C42.994,14.64,42.372,15.175,41.71,15.662z" id="id_101" style="fill: rgb(255, 255, 255);"></path>
</g>
<g>
</g>
</svg>