<svg version="1.1" id="Layer_1" xmlns="http://www.w3.org/2000/svg" xmlns:xlink="http://www.w3.org/1999/xlink" x="0px" y="0px" viewBox="0 0 40 40" enable-background="new 0 0 40 40" xml:space="preserve">
<path d="M26.932,18.581l-9.583-4.996c-0.231-0.121-0.485-0.18-0.74-0.18c-0.288,0-0.575,0.076-0.829,0.231
	c-0.477,0.289-0.771,0.809-0.771,1.367v9.992c0,0.559,0.294,1.078,0.771,1.369c0.254,0.153,0.542,0.231,0.829,0.231
	c0.254,0,0.508-0.059,0.74-0.182l9.583-4.996c0.529-0.275,0.86-0.822,0.86-1.419C27.792,19.405,27.461,18.858,26.932,18.581z
	 M16.609,24.996v-9.992L26.192,20L16.609,24.996z M35.719,13.337c-0.502-4.274-2.197-4.865-5.57-5.095
	c-2.396-0.163-6.273-0.244-10.15-0.244c-3.875,0-7.748,0.081-10.148,0.244c-3.373,0.229-5.066,0.82-5.57,5.095
	c-0.373,3.175-0.373,10.143,0,13.328c0.504,4.274,2.198,4.863,5.57,5.093c2.398,0.163,6.275,0.244,10.15,0.244
	c3.875,0,7.753-0.081,10.148-0.244c3.373-0.229,5.068-0.818,5.57-5.093C36.092,23.488,36.094,16.521,35.719,13.337z M34.13,26.478
	c-0.245,2.099-0.748,2.712-1.104,2.99c-0.57,0.447-1.605,0.601-2.984,0.695c-2.219,0.149-5.972,0.24-10.041,0.24
	c-4.068,0-7.822-0.091-10.041-0.24c-1.377-0.095-2.413-0.248-2.984-0.695c-0.356-0.278-0.858-0.892-1.106-2.99
	c-0.356-3.026-0.356-9.929,0-12.953c0.248-2.101,0.75-2.712,1.106-2.992c0.571-0.445,1.607-0.599,2.984-0.693
	c2.219-0.149,5.973-0.24,10.04-0.24c4.069,0,7.824,0.091,10.042,0.24c1.379,0.095,2.414,0.248,2.984,0.693
	c0.356,0.28,0.859,0.892,1.104,2.992C34.486,16.551,34.486,23.451,34.13,26.478z" id="id_101" style="fill: rgb(255, 255, 255);"></path>
</svg>